<!DOCTYPE svg PUBLIC "-//W3C//DTD SVG 1.1//EN" "http://www.w3.org/Graphics/SVG/1.1/DTD/svg11.dtd">
<!-- Uploaded to: SVG Repo, www.svgrepo.com, Transformed by: SVG Repo Mixer Tools -->
<svg height="800px" width="800px" version="1.1" id="Layer_1" xmlns="http://www.w3.org/2000/svg" xmlns:xlink="http://www.w3.org/1999/xlink" viewBox="-50.41 -50.41 604.94 604.94" xml:space="preserve" fill="#000000" stroke="#000000" stroke-width="0.00504125">
<g id="SVGRepo_bgCarrier" stroke-width="0">
<path transform="translate(-50.41, -50.41), scale(18.904375)" d="M16,29.5782968295472C18.316625452759922,29.234681313963776,20.406777557953472,28.304993324317586,22.51266270663057,27.28026270044319C24.76085694324123,26.18628400738859,27.50769355027357,25.530985031368946,28.762114305033442,23.36821012943983C30.016727299831274,21.20510378215823,29.0818927881414,18.5004748109569,29.055274070373603,16C29.028951382465124,13.527333260527747,30.07441728543679,10.711558148487066,28.606196550723233,8.721809027982612C27.122755369736396,6.711432988875318,23.8538402924269,7.391116144941348,21.730855781052796,6.073866616366741C19.50609472244161,4.6934677298247385,18.552163259145857,1.4844362396719215,16.000000000000004,0.9000343637807031C13.428343057525051,0.3111687667444024,10.524493639110382,1.3306897842054741,8.523024419588706,3.0494984077758343C6.588220976068195,4.711056232997571,6.757157545387621,7.718766352557708,5.485609456215563,9.929513789181193C4.216877989187455,12.135364171389122,1.5981548891145387,13.50980697727707,1.0743284353188116,15.999999999999996C0.5233136573914946,18.619442270372446,1.3121232723019123,21.390642199080293,2.578637187973179,23.748827432415304C3.864457372388882,26.142959967474038,5.774827060910921,28.310554091232365,8.267432964273855,29.393198978809934C10.673247051293412,30.438146484655014,13.405437552058466,29.963137595326014,16,29.5782968295472" fill="#93c5fd" strokewidth="0"/>
</g>
<g id="SVGRepo_tracerCarrier" stroke-linecap="round" stroke-linejoin="round"/>
<g id="SVGRepo_iconCarrier"> <path style="fill:#3A7F0D;" d="M339.772,0c0,0,44.536,108.954-146.337,182.138C89.719,221.893,10.059,323.789,105.173,481.193 c7.877-70.357,41.653-225.485,186.888-260.884c0,0-135.176,50.546-147.117,279.347c69.459,9.752,232.361,16.305,280.726-125.062 C489.536,187.817,339.772,0,339.772,0z"/> <path style="fill:#49A010;" d="M145.007,498.704c147.456-58.849,254.748-196.71,269.556-361.283C384.418,56.107,339.772,0,339.772,0 s44.536,108.954-146.337,182.138C89.719,221.893,10.059,323.789,105.173,481.193c7.877-70.357,41.653-225.485,186.888-260.884 C292.053,220.31,157.279,270.73,145.007,498.704z"/> <circle style="fill:#3A7F0D;" cx="90.459" cy="171.985" r="13.785"/> <g> <circle style="fill:#49A010;" cx="133.782" cy="158.2" r="9.846"/> <circle style="fill:#49A010;" cx="124.921" cy="64.662" r="24.615"/> <circle style="fill:#49A010;" cx="200.736" cy="120.785" r="7.877"/> <circle style="fill:#49A010;" cx="266.713" cy="76.477" r="22.646"/> </g> </g>
</svg>